<?xml version="1.0" encoding="UTF-8"?>
<svg version="1.1" xmlns="http://www.w3.org/2000/svg" width="32" height="32">
<path d="M0 0 C10.56 0 21.12 0 32 0 C32 10.56 32 21.12 32 32 C21.44 32 10.88 32 0 32 C0 21.44 0 10.88 0 0 Z " fill="#010101" transform="translate(0,0)"/>
<path d="M0 0 C1.32 0 2.64 0 4 0 C4.10812003 2.75105422 4.18734945 5.49785087 4.25 8.25 C4.30027344 9.41595703 4.30027344 9.41595703 4.3515625 10.60546875 C4.45027902 16.38038528 4.45027902 16.38038528 2.171875 19.515625 C-0.790884 21.54053223 -2.48303149 21.58616142 -6 21 C-8.375 19.375 -8.375 19.375 -10 17 C-10.61195145 13.3282913 -10.48706506 11.71186432 -8.375 8.625 C-5.3962104 6.5868808 -3.53677664 6.67847485 0 7 C0 4.69 0 2.38 0 0 Z " fill="#EFEFEF" transform="translate(19,5)"/>
<path d="M0 0 C1.2065625 0.0309375 1.2065625 0.0309375 2.4375 0.0625 C2.4375 1.7125 2.4375 3.3625 2.4375 5.0625 C0.7875 5.3925 -0.8625 5.7225 -2.5625 6.0625 C-2.94468767 4.40635343 -3.27645102 2.73792976 -3.5625 1.0625 C-2.5625 0.0625 -2.5625 0.0625 0 0 Z " fill="#050505" transform="translate(16.5625,15.9375)"/>
</svg>
