<?xml version="1.0" standalone="no"?>
<!DOCTYPE svg PUBLIC "-//W3C//DTD SVG 20010904//EN"
 "http://www.w3.org/TR/2001/REC-SVG-20010904/DTD/svg10.dtd">
<svg version="1.0" xmlns="http://www.w3.org/2000/svg"
 width="314.000000pt" height="454.000000pt" viewBox="0 0 314.000000 454.000000"
 preserveAspectRatio="xMidYMid meet">

<g transform="translate(0.000000,454.000000) scale(0.100000,-0.100000)"
fill="#000000" stroke="none">
<path d="M0 2270 l0 -2270 1570 0 1570 0 0 2270 0 2270 -64 0 -63 0 -7 -202
c-3 -112 -8 -781 -11 -1488 -4 -782 -10 -1330 -16 -1400 -62 -674 -566 -1214
-1239 -1327 -130 -22 -366 -21 -495 1 -627 110 -1109 594 -1217 1221 -17 102
-19 148 -15 300 6 191 17 261 69 425 71 225 185 408 362 586 228 227 486 362
794 415 101 17 164 19 548 19 l434 0 0 725 0 725 -1110 0 -1110 0 0 -2270z"/>
<path d="M1355 2284 c-38 -8 -113 -36 -165 -61 -79 -38 -108 -59 -180 -132
-72 -71 -95 -102 -134 -181 -61 -124 -79 -213 -73 -350 9 -195 75 -340 216
-480 68 -68 104 -94 171 -128 120 -59 199 -75 340 -70 195 8 343 72 480 208
85 85 130 156 166 258 39 113 42 171 31 575 l-11 377 -385 -1 c-299 0 -402 -4
-456 -15z"/>
</g>
</svg>
