
<svg >
    <symbol id="left-arrow" xmlns="http://www.w3.org/2000/svg" xmlns:xlink="http://www.w3.org/1999/xlink">
        <path d="M19 8.175H2.98748L9.36248 1.6875C9.69998 1.35 9.69998 0.825 9.36248 0.4875C9.02498 0.15 8.49998 0.15 8.16248 0.4875L0.399976 8.3625C0.0624756 8.7 0.0624756 9.225 0.399976 9.5625L8.16248 17.4375C8.31248 17.5875 8.53748 17.7 8.76248 17.7C8.98748 17.7 9.17498 17.625 9.36248 17.475C9.69998 17.1375 9.69998 16.6125 9.36248 16.275L3.02498 9.8625H19C19.45 9.8625 19.825 9.4875 19.825 9.0375C19.825 8.55 19.45 8.175 19 8.175Z"/>
    </symbol>
    <symbol id="dashboard" xmlns="http://www.w3.org/2000/svg" xmlns:xlink="http://www.w3.org/1999/xlink">
        <path d="M6.10322 0.956299H2.53135C1.5751 0.956299 0.787598 1.7438 0.787598 2.70005V6.27192C0.787598 7.22817 1.5751 8.01567 2.53135 8.01567H6.10322C7.05947 8.01567 7.84697 7.22817 7.84697 6.27192V2.72817C7.8751 1.7438 7.0876 0.956299 6.10322 0.956299ZM6.60947 6.30005C6.60947 6.5813 6.38447 6.8063 6.10322 6.8063H2.53135C2.2501 6.8063 2.0251 6.5813 2.0251 6.30005V2.72817C2.0251 2.44692 2.2501 2.22192 2.53135 2.22192H6.10322C6.38447 2.22192 6.60947 2.44692 6.60947 2.72817V6.30005Z"/>
        <path d="M15.4689 0.956299H11.8971C10.9408 0.956299 10.1533 1.7438 10.1533 2.70005V6.27192C10.1533 7.22817 10.9408 8.01567 11.8971 8.01567H15.4689C16.4252 8.01567 17.2127 7.22817 17.2127 6.27192V2.72817C17.2127 1.7438 16.4252 0.956299 15.4689 0.956299ZM15.9752 6.30005C15.9752 6.5813 15.7502 6.8063 15.4689 6.8063H11.8971C11.6158 6.8063 11.3908 6.5813 11.3908 6.30005V2.72817C11.3908 2.44692 11.6158 2.22192 11.8971 2.22192H15.4689C15.7502 2.22192 15.9752 2.44692 15.9752 2.72817V6.30005Z"/>
        <path d="M6.10322 9.92822H2.53135C1.5751 9.92822 0.787598 10.7157 0.787598 11.672V15.2438C0.787598 16.2001 1.5751 16.9876 2.53135 16.9876H6.10322C7.05947 16.9876 7.84697 16.2001 7.84697 15.2438V11.7001C7.8751 10.7157 7.0876 9.92822 6.10322 9.92822ZM6.60947 15.272C6.60947 15.5532 6.38447 15.7782 6.10322 15.7782H2.53135C2.2501 15.7782 2.0251 15.5532 2.0251 15.272V11.7001C2.0251 11.4188 2.2501 11.1938 2.53135 11.1938H6.10322C6.38447 11.1938 6.60947 11.4188 6.60947 11.7001V15.272Z"/>
        <path d="M15.4689 9.92822H11.8971C10.9408 9.92822 10.1533 10.7157 10.1533 11.672V15.2438C10.1533 16.2001 10.9408 16.9876 11.8971 16.9876H15.4689C16.4252 16.9876 17.2127 16.2001 17.2127 15.2438V11.7001C17.2127 10.7157 16.4252 9.92822 15.4689 9.92822ZM15.9752 15.272C15.9752 15.5532 15.7502 15.7782 15.4689 15.7782H11.8971C11.6158 15.7782 11.3908 15.5532 11.3908 15.272V11.7001C11.3908 11.4188 11.6158 11.1938 11.8971 11.1938H15.4689C15.7502 11.1938 15.9752 11.4188 15.9752 11.7001V15.272Z"/>
    </symbol>
    <symbol id="cart-full" xmlns="http://www.w3.org/2000/svg" xmlns:xlink="http://www.w3.org/1999/xlink">
        <g>
            <path d="M37.1,47.8c-4,0-7.2,3.2-7.2,7.2c0,4,3.2,7.2,7.2,7.2c4,0,7.2-3.2,7.2-7.2C44.3,51.1,41,47.8,37.1,47.8z M37.1,57.8c-1.5,0-2.7-1.2-2.7-2.7c0-1.5,1.2-2.7,2.7-2.7c1.5,0,2.7,1.2,2.7,2.7C39.8,56.5,38.5,57.8,37.1,57.8z"/>
            <path d="M18.1,47.8c-4,0-7.2,3.2-7.2,7.2c0,4,3.2,7.2,7.2,7.2s7.2-3.2,7.2-7.2C25.3,51.1,22,47.8,18.1,47.8z M18.1,57.8c-1.5,0-2.7-1.2-2.7-2.7c0-1.5,1.2-2.7,2.7-2.7c1.5,0,2.7,1.2,2.7,2.7C20.8,56.5,19.6,57.8,18.1,57.8z"/>
            <path d="M58.2,1.8h-5.4c-2.4,0-4.5,1.8-4.8,4.2l-1.6,11.5h-4.2v-7.3C42.1,8.4,40.7,7,39,7h-7.4c-0.3-1.5-1.6-2.6-3.1-2.6h-8.7c-1.7,0-3.2,1.5-3.2,3.4v1.9H9.3c-1.7,0-3.2,1.4-3.2,3v4.9c-0.8,0.2-1.4,0.6-1.9,1.2c-0.6,0.8-0.9,1.9-0.6,2.9c0,0.1,0,0.1,0,0.2l6.2,18.7c0.4,1.4,1.7,2.4,3.2,2.4h27.6c3.7,0,6.9-2.8,7.4-6.5l4.2-29.9c0-0.2,0.2-0.3,0.4-0.3h5.4c1.2,0,2.3-1,2.3-2.3S59.4,1.8,58.2,1.8z M37.6,17.5h-6v-6h6V17.5z M21.2,8.9h6v1.3v7.3h-6v-4.7V8.9z M10.7,14.1h6v3.4h-6V14.1z M43.7,35.8c-0.2,1.5-1.5,2.6-3,2.6H13.9L8.5,22h37.2L43.7,35.8z"/>
        </g>
    </symbol>
    <symbol id="down-arrow" xmlns="http://www.w3.org/2000/svg" xmlns:xlink="http://www.w3.org/1999/xlink">
        <path d="M4.41107 6.9107C4.73651 6.58527 5.26414 6.58527 5.58958 6.9107L10.0003 11.3214L14.4111 6.91071C14.7365 6.58527 15.2641 6.58527 15.5896 6.91071C15.915 7.23614 15.915 7.76378 15.5896 8.08922L10.5896 13.0892C10.2641 13.4147 9.73651 13.4147 9.41107 13.0892L4.41107 8.08922C4.08563 7.76378 4.08563 7.23614 4.41107 6.9107Z"/>
    </symbol>
    <symbol id="calendar" xmlns="http://www.w3.org/2000/svg" xmlns:xlink="http://www.w3.org/1999/xlink">
        <path d="M15.7499 2.9812H14.2874V2.36245C14.2874 2.02495 14.0062 1.71558 13.6405 1.71558C13.2749 1.71558 12.9937 1.99683 12.9937 2.36245V2.9812H4.97803V2.36245C4.97803 2.02495 4.69678 1.71558 4.33115 1.71558C3.96553 1.71558 3.68428 1.99683 3.68428 2.36245V2.9812H2.2499C1.29365 2.9812 0.478027 3.7687 0.478027 4.75308V14.5406C0.478027 15.4968 1.26553 16.3125 2.2499 16.3125H15.7499C16.7062 16.3125 17.5218 15.525 17.5218 14.5406V4.72495C17.5218 3.7687 16.7062 2.9812 15.7499 2.9812ZM1.77178 8.21245H4.1624V10.9968H1.77178V8.21245ZM5.42803 8.21245H8.38115V10.9968H5.42803V8.21245ZM8.38115 12.2625V15.0187H5.42803V12.2625H8.38115ZM9.64678 12.2625H12.5999V15.0187H9.64678V12.2625ZM9.64678 10.9968V8.21245H12.5999V10.9968H9.64678ZM13.8374 8.21245H16.228V10.9968H13.8374V8.21245ZM2.2499 4.24683H3.7124V4.83745C3.7124 5.17495 3.99365 5.48433 4.35928 5.48433C4.7249 5.48433 5.00615 5.20308 5.00615 4.83745V4.24683H13.0499V4.83745C13.0499 5.17495 13.3312 5.48433 13.6968 5.48433C14.0624 5.48433 14.3437 5.20308 14.3437 4.83745V4.24683H15.7499C16.0312 4.24683 16.2562 4.47183 16.2562 4.75308V6.94683H1.77178V4.75308C1.77178 4.47183 1.96865 4.24683 2.2499 4.24683ZM1.77178 14.5125V12.2343H4.1624V14.9906H2.2499C1.96865 15.0187 1.77178 14.7937 1.77178 14.5125ZM15.7499 15.0187H13.8374V12.2625H16.228V14.5406C16.2562 14.7937 16.0312 15.0187 15.7499 15.0187Z"/>
    </symbol>
    <symbol id="booking" xmlns="http://www.w3.org/2000/svg" xmlns:xlink="http://www.w3.org/1999/xlink">
        <path d="M1.43425 7.5093H2.278C2.44675 7.5093 2.55925 7.3968 2.58737 7.31243L2.98112 6.32805H5.90612L6.27175 7.31243C6.328 7.48118 6.46862 7.5093 6.58112 7.5093H7.453C7.76237 7.48118 7.87487 7.25618 7.76237 7.03118L5.428 1.4343C5.37175 1.26555 5.3155 1.23743 5.14675 1.23743H3.88112C3.76862 1.23743 3.59987 1.29368 3.57175 1.4343L1.153 7.08743C1.0405 7.2843 1.20925 7.5093 1.43425 7.5093ZM4.47175 2.98118L5.3155 5.17493H3.59987L4.47175 2.98118Z"/>
        <path d="M10.1249 2.5031H16.8749C17.2124 2.5031 17.5218 2.22185 17.5218 1.85623C17.5218 1.4906 17.2405 1.20935 16.8749 1.20935H10.1249C9.7874 1.20935 9.47803 1.4906 9.47803 1.85623C9.47803 2.22185 9.75928 2.5031 10.1249 2.5031Z"/>
        <path d="M16.8749 6.21558H10.1249C9.7874 6.21558 9.47803 6.49683 9.47803 6.86245C9.47803 7.22808 9.75928 7.50933 10.1249 7.50933H16.8749C17.2124 7.50933 17.5218 7.22808 17.5218 6.86245C17.5218 6.49683 17.2124 6.21558 16.8749 6.21558Z"/>
        <path d="M16.875 11.1656H1.77187C1.43438 11.1656 1.125 11.4469 1.125 11.8125C1.125 12.1781 1.40625 12.4594 1.77187 12.4594H16.875C17.2125 12.4594 17.5219 12.1781 17.5219 11.8125C17.5219 11.4469 17.2125 11.1656 16.875 11.1656Z"/>
        <path d="M16.875 16.1156H1.77187C1.43438 16.1156 1.125 16.3969 1.125 16.7625C1.125 17.1281 1.40625 17.4094 1.77187 17.4094H16.875C17.2125 17.4094 17.5219 17.1281 17.5219 16.7625C17.5219 16.3969 17.2125 16.1156 16.875 16.1156Z"/>
    </symbol>
    <symbol id="team" xmlns="http://www.w3.org/2000/svg" xmlns:xlink="http://www.w3.org/1999/xlink">
        <g>
            <path d="M31.9,18.4c4.2,0,7.5-3.4,7.5-7.5s-3.4-7.5-7.5-7.5s-7.5,3.4-7.5,7.5S27.7,18.4,31.9,18.4z M31.9,7.8c1.7,0,3,1.4,3,3s-1.4,3-3,3s-3-1.4-3-3S30.2,7.8,31.9,7.8z"/>
            <path d="M23.6,28.5c2.1-2.3,5.2-3.7,8.4-3.7c3.2,0,6.3,1.3,8.4,3.7c0.4,0.5,1,0.7,1.7,0.7c0.5,0,1.1-0.2,1.5-0.6c0.9-0.8,1-2.3,0.1-3.2c-3-3.2-7.3-5.1-11.7-5.1s-8.7,1.9-11.7,5.1c-0.8,0.9-0.8,2.3,0.1,3.2C21.3,29.5,22.7,29.4,23.6,28.5z"/>
            <path d="M13.4,50.1c4.2,0,7.5-3.4,7.5-7.5c0-4.2-3.4-7.5-7.5-7.5s-7.5,3.4-7.5,7.5C5.8,46.8,9.2,50.1,13.4,50.1z M13.4,39.5c1.7,0,3,1.4,3,3c0,1.7-1.4,3-3,3s-3-1.4-3-3C10.3,40.9,11.7,39.5,13.4,39.5z"/>
            <path d="M13.1,51.8c-4.4,0-8.7,1.9-11.7,5.1c-0.8,0.9-0.8,2.3,0.1,3.2C2.4,61,3.8,60.9,4.7,60c2.1-2.3,5.2-3.7,8.4-3.7c3.2,0,6.3,1.3,8.4,3.7c0.4,0.5,1,0.7,1.7,0.7c0.5,0,1.1-0.2,1.5-0.6c0.9-0.8,1-2.3,0.1-3.2C21.8,53.7,17.5,51.8,13.1,51.8z"/>
            <path d="M50.4,50.1c4.2,0,7.5-3.4,7.5-7.5c0-4.2-3.4-7.5-7.5-7.5c-4.2,0-7.5,3.4-7.5,7.5C42.9,46.8,46.3,50.1,50.4,50.1zM50.4,39.5c1.7,0,3,1.4,3,3c0,1.7-1.4,3-3,3c-1.7,0-3-1.4-3-3C47.4,40.9,48.8,39.5,50.4,39.5z"/>
            <path d="M62.7,57c-3-3.2-7.3-5.1-11.7-5.1s-8.7,1.9-11.7,5.1c-0.8,0.9-0.8,2.3,0.1,3.2c0.9,0.8,2.3,0.8,3.2-0.1c2.1-2.3,5.2-3.7,8.4-3.7c3.2,0,6.3,1.3,8.4,3.7c0.4,0.5,1,0.7,1.7,0.7c0.5,0,1.1-0.2,1.5-0.6C63.4,59.3,63.5,57.9,62.7,57z"/>
            <path d="M39.2,40.9c0.5-1.1,0-2.5-1.1-3l-3.9-1.8V32c0-1.2-1-2.3-2.2-2.3s-2.3,1-2.3,2.3v4l-4,1.9c-1.1,0.5-1.6,1.9-1.1,3c0.5,1.1,1.9,1.6,3,1.1l4.2-2l4.5,2c0.3,0.1,0.6,0.2,0.9,0.2C38,42.2,38.8,41.7,39.2,40.9z"/>
        </g>
    </symbol>
    <symbol id="users" xmlns="http://www.w3.org/2000/svg" xmlns:xlink="http://www.w3.org/1999/xlink">
        <g>
            <path d="M21.8,36.8c6.9,0,12.4-5.6,12.4-12.4s-5.6-12.4-12.4-12.4S9.4,17.5,9.4,24.4S15,36.8,21.8,36.8z M21.8,16.4c4.4,0,7.9,3.6,7.9,7.9s-3.6,7.9-7.9,7.9c-4.4,0-7.9-3.6-7.9-7.9S17.4,16.4,21.8,16.4z"/>
            <path d="M21.8,39.9c-7.2,0-14.1,2.9-19.4,8.3c-0.9,0.9-0.9,2.3,0,3.2c0.4,0.4,1,0.7,1.6,0.7c0.6,0,1.2-0.2,1.6-0.7c4.4-4.5,10.2-7,16.2-7c5.9,0,11.7,2.5,16.2,7c0.9,0.9,2.3,0.9,3.2,0c0.9-0.9,0.9-2.3,0-3.2C35.9,42.9,29,39.9,21.8,39.9z"/>
            <path d="M47.3,36.8c4,0,7.3-3.3,7.3-7.3c0-4-3.3-7.3-7.3-7.3s-7.3,3.3-7.3,7.3C39.9,33.5,43.2,36.8,47.3,36.8z M47.3,26.6c1.6,0,2.8,1.3,2.8,2.8c0,1.6-1.3,2.8-2.8,2.8s-2.8-1.3-2.8-2.8C44.4,27.9,45.7,26.6,47.3,26.6z"/>
            <path d="M61.5,45.6c-5.3-4.9-12.6-6.9-19.9-5c-1.2,0.3-1.9,1.5-1.6,2.7c0.3,1.2,1.6,1.9,2.7,1.6c5.8-1.5,11.6,0,15.7,3.9c0.4,0.4,1,0.6,1.5,0.6c0.6,0,1.2-0.2,1.6-0.7C62.5,47.9,62.4,46.5,61.5,45.6z"/>
        </g>
    </symbol>
    <symbol id="guest" xmlns="http://www.w3.org/2000/svg" xmlns:xlink="http://www.w3.org/1999/xlink">
        <g>
            <path d="M60,29.8h-5.9C53,19.3,44.7,11,34.3,9.9V4c0-1.2-1-2.3-2.3-2.3c-1.2,0-2.3,1-2.3,2.3v5.9C19.3,11,11,19.3,9.9,29.8H4c-1.2,0-2.3,1-2.3,2.3c0,1.2,1,2.3,2.3,2.3h5.9c1,10.6,9.4,19,19.9,20.1V60c0,1.2,1,2.3,2.3,2.3c1.2,0,2.3-1,2.3-2.3v-5.6c10.5-1.1,18.9-9.5,19.9-20.1H60c1.2,0,2.3-1,2.3-2.3C62.3,30.8,61.2,29.8,60,29.8z M34.2,49.8c0-1.2-1-2.2-2.2-2.2c-1.2,0-2.2,1-2.2,2.2c-8-1-14.4-7.5-15.3-15.6h2.3c1.2,0,2.3-1,2.3-2.3c0-1.2-1-2.3-2.3-2.3h-2.3c1.1-8,7.4-14.3,15.3-15.3c0.1,1.1,1.1,2,2.2,2c1.1,0,2.1-0.9,2.2-2c8,1,14.3,7.3,15.3,15.3c-1.1,0.1-2,1.1-2,2.2c0,1.2,0.9,2.1,2,2.2C48.7,42.3,42.3,48.8,34.2,49.8z"/>
            <path d="M38.1,36.1c1.3-1.4,2.1-3.3,2.1-5.4c0-4.5-3.7-8.2-8.2-8.2c-4.5,0-8.2,3.7-8.2,8.2c0,2.1,0.8,4,2.1,5.4c-1.6,0.7-3,1.6-4.3,2.7c-0.9,0.8-1,2.2-0.2,3.2c0.4,0.5,1.1,0.8,1.7,0.8c0.5,0,1.1-0.2,1.5-0.6c2.1-1.8,4.7-2.9,7.4-2.9c2.8,0,5.4,1,7.4,2.8c0.9,0.8,2.3,0.8,3.2-0.2c0.8-0.9,0.8-2.3-0.2-3.2C41.1,37.7,39.7,36.8,38.1,36.1z M32,27c2,0,3.7,1.7,3.7,3.7c0,2-1.7,3.7-3.7,3.7c-2,0-3.7-1.7-3.7-3.7C28.3,28.7,30,27,32,27z"/>
        </g>
    </symbol>
    <symbol id="bar-chart" xmlns="http://www.w3.org/2000/svg" xmlns:xlink="http://www.w3.org/1999/xlink">
        <path d="M60,55.2h-5.4V35.5c0-3.2-2.6-5.7-5.7-5.7h-5.8c-3.2,0-5.7,2.6-5.7,5.7v19.7h-6V20.4c0-3.2-2.6-5.7-5.7-5.7h-5.8c-3.2,0-5.7,2.6-5.7,5.7v34.8H6.3V6.5c0-1.2-1-2.3-2.3-2.3s-2.3,1-2.3,2.3v48.9c0,2.3,1.9,4.3,4.3,4.3h54c1.2,0,2.3-1,2.3-2.3S61.2,55.2,60,55.2z M18.7,55.2V20.4c0-0.7,0.6-1.2,1.2-1.2h5.8c0.7,0,1.2,0.6,1.2,1.2v34.8H18.7z M41.9,55.2V35.5c0-0.7,0.6-1.2,1.2-1.2h5.8c0.7,0,1.2,0.6,1.2,1.2v19.7H41.9z"/>
    </symbol>
    <symbol id="settings" xmlns="http://www.w3.org/2000/svg" xmlns:xlink="http://www.w3.org/1999/xlink">
        <g>
            <path d="M32.1,19.6c-6.8,0-12.4,5.6-12.4,12.4c0,6.9,5.6,12.4,12.4,12.4S44.5,38.9,44.5,32C44.5,25.2,38.9,19.6,32.1,19.6zM32.1,40c-4.4,0-7.9-3.6-7.9-7.9c0-4.4,3.5-7.9,7.9-7.9S40,27.7,40,32C40,36.4,36.4,40,32.1,40z"/>
            <path d="M60.7,38.1l-5.6-3.1c0.2-1.1,0.3-2.2,0.3-3.3c0-1.2-0.1-2.3-0.2-3.4l5.7-3.2c1.3-0.7,1.8-2.3,1.2-3.7l-5.8-9.8c-0.7-1.2-2.3-1.7-3.6-1.2l-6,3.3c-0.3-0.2-0.6-0.5-0.8-0.7c-1.1-0.9-2.1-1.8-3.7-2.6c-0.1,0-0.2-0.1-0.2-0.3V6.5c0-2.6-2.1-4.8-4.8-4.8H26.9c-2.6,0-4.8,2.2-4.8,4.8l0,3.9c0,0.1-0.1,0.2-0.2,0.3c-1.5,0.7-2.6,1.7-3.8,2.6c-0.2,0.2-0.5,0.4-0.7,0.6l-5.3-3c-2-1.1-3.7-0.4-4.4,0.8l-5.5,9.5C1.9,22,1.8,22.8,2,23.6c0.2,0.8,0.7,1.4,1.4,1.8L9,28.4c-0.2,1-0.2,2.1-0.2,3.4c0,1.1,0.1,2.2,0.2,3.3l-5.8,3.2C1.9,39,1.4,40.6,2,42l5.8,9.8C8.5,53,10,53.5,11.4,53l6-3.3c0.3,0.2,0.5,0.4,0.8,0.7c1.1,1,2.2,1.9,3.8,2.6c0.1,0,0.2,0.1,0.2,0.3v4.3c0,2.6,2.1,4.8,4.8,4.8h10.2c2.6,0,4.8-2.2,4.8-4.8V53c0-0.1,0.1-0.2,0.2-0.3c1.5-0.7,2.5-1.6,3.7-2.6c0.3-0.2,0.5-0.4,0.8-0.7l5.3,3c2,1.1,3.6,0.4,4.4-0.8l5.6-9.5c0.4-0.7,0.5-1.5,0.3-2.2S61.4,38.5,60.7,38.1z M53.1,48l-4.8-2.7c-1.4-0.8-3-0.6-4.2,0.4c-0.5,0.4-0.9,0.7-1.3,1.1c-1,0.9-1.7,1.5-2.7,1.9c-1.6,0.8-2.7,2.5-2.7,4.3v4.4c0,0.2-0.1,0.3-0.3,0.3H26.9c-0.2,0-0.3-0.1-0.3-0.3v-4.3c0-1.8-1.1-3.5-2.7-4.3c-1-0.5-1.8-1.1-2.8-2c-0.4-0.3-0.8-0.7-1.3-1c-0.7-0.5-1.5-0.8-2.4-0.8c-0.6,0-1.3,0.2-1.9,0.5l-4.8,2.7l-4-6.8l4.7-2.6c1.4-0.8,2.2-2.3,2-4c-0.1-1-0.2-2-0.2-3c0-1.1,0.1-2.1,0.2-2.9c0.3-1.7-0.5-3.4-2-4.2L7,22.2l3.9-6.7l4.8,2.7c1.4,0.8,3,0.6,4.2-0.4c0.4-0.3,0.8-0.7,1.2-1c1-0.9,1.8-1.5,2.8-2c1.7-0.8,2.7-2.5,2.7-4.3l0-3.9c0-0.2,0.1-0.3,0.3-0.3h10.2c0.2,0,0.3,0.1,0.3,0.3v3.8c0,1.8,1.1,3.5,2.7,4.3c1,0.5,1.7,1.1,2.7,1.9c0.4,0.4,0.8,0.7,1.3,1.1c1.2,1,2.9,1.1,4.2,0.3l4.8-2.7l4,6.8l-4.6,2.6c-1.4,0.8-2.2,2.5-1.9,4.2c0.1,0.9,0.2,1.9,0.2,2.9c0,1-0.1,2-0.3,3c-0.3,1.7,0.5,3.3,2,4.1l4.5,2.5L53.1,48z"/>
        </g>
    </symbol>

    <symbol id="search-icon" xmlns="http://www.w3.org/2000/svg" xmlns:xlink="http://www.w3.org/1999/xlink">
        <path d="M9.16666 3.33332C5.945 3.33332 3.33332 5.945 3.33332 9.16666C3.33332 12.3883 5.945 15 9.16666 15C12.3883 15 15 12.3883 15 9.16666C15 5.945 12.3883 3.33332 9.16666 3.33332ZM1.66666 9.16666C1.66666 5.02452 5.02452 1.66666 9.16666 1.66666C13.3088 1.66666 16.6667 5.02452 16.6667 9.16666C16.6667 13.3088 13.3088 16.6667 9.16666 16.6667C5.02452 16.6667 1.66666 13.3088 1.66666 9.16666Z"/>
        <path d="M13.2857 13.2857C13.6112 12.9603 14.1388 12.9603 14.4642 13.2857L18.0892 16.9107C18.4147 17.2362 18.4147 17.7638 18.0892 18.0892C17.7638 18.4147 17.2362 18.4147 16.9107 18.0892L13.2857 14.4642C12.9603 14.1388 12.9603 13.6112 13.2857 13.2857Z"/>
    </symbol>

    <symbol id="message" xmlns="http://www.w3.org/2000/svg" xmlns:xlink="http://www.w3.org/1999/xlink">
        <path d="M10.9688 1.57495H7.03135C3.43135 1.57495 0.506348 4.41558 0.506348 7.90308C0.506348 11.3906 2.75635 13.8375 8.26885 16.3125C8.40947 16.3687 8.52197 16.3968 8.6626 16.3968C8.85947 16.3968 9.02822 16.3406 9.19697 16.2281C9.47822 16.0593 9.64697 15.75 9.64697 15.4125V14.2031H10.9688C14.5688 14.2031 17.522 11.3625 17.522 7.87495C17.522 4.38745 14.5688 1.57495 10.9688 1.57495ZM10.9688 12.9937H9.3376C8.80322 12.9937 8.35322 13.4437 8.35322 13.9781V15.0187C3.6001 12.825 1.74385 10.8 1.74385 7.9312C1.74385 5.14683 4.10635 2.8687 7.03135 2.8687H10.9688C13.8657 2.8687 16.2563 5.14683 16.2563 7.9312C16.2563 10.7156 13.8657 12.9937 10.9688 12.9937Z"/>
        <path d="M5.42812 7.28442C5.0625 7.28442 4.78125 7.56567 4.78125 7.9313C4.78125 8.29692 5.0625 8.57817 5.42812 8.57817C5.79375 8.57817 6.075 8.29692 6.075 7.9313C6.075 7.56567 5.79375 7.28442 5.42812 7.28442Z"/>
        <path d="M9.00015 7.28442C8.63452 7.28442 8.35327 7.56567 8.35327 7.9313C8.35327 8.29692 8.63452 8.57817 9.00015 8.57817C9.33765 8.57817 9.64702 8.29692 9.64702 7.9313C9.64702 7.56567 9.33765 7.28442 9.00015 7.28442Z"/>
        <path d="M12.5719 7.28442C12.2063 7.28442 11.925 7.56567 11.925 7.9313C11.925 8.29692 12.2063 8.57817 12.5719 8.57817C12.9375 8.57817 13.2188 8.29692 13.2188 7.9313C13.2188 7.56567 12.9094 7.28442 12.5719 7.28442Z"/>
    </symbol>

    <symbol id="sun-icon" xmlns="http://www.w3.org/2000/svg" xmlns:xlink="http://www.w3.org/1999/xlink">
        <path d="M7.99992 12.6666C10.5772 12.6666 12.6666 10.5772 12.6666 7.99992C12.6666 5.42259 10.5772 3.33325 7.99992 3.33325C5.42259 3.33325 3.33325 5.42259 3.33325 7.99992C3.33325 10.5772 5.42259 12.6666 7.99992 12.6666Z"
              fill="#969AA1"/>
        <path d="M8.00008 15.3067C7.63341 15.3067 7.33342 15.0334 7.33342 14.6667V14.6134C7.33342 14.2467 7.63341 13.9467 8.00008 13.9467C8.36675 13.9467 8.66675 14.2467 8.66675 14.6134C8.66675 14.9801 8.36675 15.3067 8.00008 15.3067ZM12.7601 13.4267C12.5867 13.4267 12.4201 13.3601 12.2867 13.2334L12.2001 13.1467C11.9401 12.8867 11.9401 12.4667 12.2001 12.2067C12.4601 11.9467 12.8801 11.9467 13.1401 12.2067L13.2267 12.2934C13.4867 12.5534 13.4867 12.9734 13.2267 13.2334C13.1001 13.3601 12.9334 13.4267 12.7601 13.4267ZM3.24008 13.4267C3.06675 13.4267 2.90008 13.3601 2.76675 13.2334C2.50675 12.9734 2.50675 12.5534 2.76675 12.2934L2.85342 12.2067C3.11342 11.9467 3.53341 11.9467 3.79341 12.2067C4.05341 12.4667 4.05341 12.8867 3.79341 13.1467L3.70675 13.2334C3.58008 13.3601 3.40675 13.4267 3.24008 13.4267ZM14.6667 8.66675H14.6134C14.2467 8.66675 13.9467 8.36675 13.9467 8.00008C13.9467 7.63341 14.2467 7.33342 14.6134 7.33342C14.9801 7.33342 15.3067 7.63341 15.3067 8.00008C15.3067 8.36675 15.0334 8.66675 14.6667 8.66675ZM1.38675 8.66675H1.33341C0.966748 8.66675 0.666748 8.36675 0.666748 8.00008C0.666748 7.63341 0.966748 7.33342 1.33341 7.33342C1.70008 7.33342 2.02675 7.63341 2.02675 8.00008C2.02675 8.36675 1.75341 8.66675 1.38675 8.66675ZM12.6734 3.99341C12.5001 3.99341 12.3334 3.92675 12.2001 3.80008C11.9401 3.54008 11.9401 3.12008 12.2001 2.86008L12.2867 2.77341C12.5467 2.51341 12.9667 2.51341 13.2267 2.77341C13.4867 3.03341 13.4867 3.45341 13.2267 3.71341L13.1401 3.80008C13.0134 3.92675 12.8467 3.99341 12.6734 3.99341ZM3.32675 3.99341C3.15341 3.99341 2.98675 3.92675 2.85342 3.80008L2.76675 3.70675C2.50675 3.44675 2.50675 3.02675 2.76675 2.76675C3.02675 2.50675 3.44675 2.50675 3.70675 2.76675L3.79341 2.85342C4.05341 3.11342 4.05341 3.53341 3.79341 3.79341C3.66675 3.92675 3.49341 3.99341 3.32675 3.99341ZM8.00008 2.02675C7.63341 2.02675 7.33342 1.75341 7.33342 1.38675V1.33341C7.33342 0.966748 7.63341 0.666748 8.00008 0.666748C8.36675 0.666748 8.66675 0.966748 8.66675 1.33341C8.66675 1.70008 8.36675 2.02675 8.00008 2.02675Z"
              fill="#969AA1"/>
    </symbol>

    <symbol id="moon-icon" xmlns="http://www.w3.org/2000/svg" xmlns:xlink="http://www.w3.org/1999/xlink">
        <path d="M14.3533 10.62C14.2466 10.44 13.9466 10.16 13.1999 10.2933C12.7866 10.3667 12.3666 10.4 11.9466 10.38C10.3933 10.3133 8.98659 9.6 8.00659 8.5C7.13993 7.53333 6.60659 6.27333 6.59993 4.91333C6.59993 4.15333 6.74659 3.42 7.04659 2.72666C7.33993 2.05333 7.13326 1.7 6.98659 1.55333C6.83326 1.4 6.47326 1.18666 5.76659 1.48C3.03993 2.62666 1.35326 5.36 1.55326 8.28666C1.75326 11.04 3.68659 13.3933 6.24659 14.28C6.85993 14.4933 7.50659 14.62 8.17326 14.6467C8.27993 14.6533 8.38659 14.66 8.49326 14.66C10.7266 14.66 12.8199 13.6067 14.1399 11.8133C14.5866 11.1933 14.4666 10.8 14.3533 10.62Z"
              fill="#969AA1"/>
    </symbol>

    <symbol id="notification" xmlns="http://www.w3.org/2000/svg" xmlns:xlink="http://www.w3.org/1999/xlink">
        <path d="M16.1999 14.9343L15.6374 14.0624C15.5249 13.8937 15.4687 13.7249 15.4687 13.528V7.67803C15.4687 6.01865 14.7655 4.47178 13.4718 3.31865C12.4312 2.39053 11.0812 1.7999 9.64678 1.6874V1.1249C9.64678 0.787402 9.36553 0.478027 8.9999 0.478027C8.6624 0.478027 8.35303 0.759277 8.35303 1.1249V1.65928C8.29678 1.65928 8.24053 1.65928 8.18428 1.6874C4.92178 2.05303 2.4749 4.66865 2.4749 7.79053V13.528C2.44678 13.8093 2.39053 13.9499 2.33428 14.0343L1.7999 14.9343C1.63115 15.2155 1.63115 15.553 1.7999 15.8343C1.96865 16.0874 2.2499 16.2562 2.55928 16.2562H8.38115V16.8749C8.38115 17.2124 8.6624 17.5218 9.02803 17.5218C9.36553 17.5218 9.6749 17.2405 9.6749 16.8749V16.2562H15.4687C15.778 16.2562 16.0593 16.0874 16.228 15.8343C16.3968 15.553 16.3968 15.2155 16.1999 14.9343ZM3.23428 14.9905L3.43115 14.653C3.5999 14.3718 3.68428 14.0343 3.74053 13.6405V7.79053C3.74053 5.31553 5.70928 3.23428 8.3249 2.95303C9.92803 2.78428 11.503 3.2624 12.6562 4.2749C13.6687 5.1749 14.2312 6.38428 14.2312 7.67803V13.528C14.2312 13.9499 14.3437 14.3437 14.5968 14.7374L14.7655 14.9905H3.23428Z"/>
    </symbol>
    <symbol id="chevron-down" xmlns="http://www.w3.org/2000/svg" xmlns:xlink="http://www.w3.org/1999/xlink">
        <path d="M0.410765 0.910734C0.736202 0.585297 1.26384 0.585297 1.58928 0.910734L6.00002 5.32148L10.4108 0.910734C10.7362 0.585297 11.2638 0.585297 11.5893 0.910734C11.9147 1.23617 11.9147 1.76381 11.5893 2.08924L6.58928 7.08924C6.26384 7.41468 5.7362 7.41468 5.41077 7.08924L0.410765 2.08924C0.0853277 1.76381 0.0853277 1.23617 0.410765 0.910734Z"/>
    </symbol>
    <symbol id="user" xmlns="http://www.w3.org/2000/svg" xmlns:xlink="http://www.w3.org/1999/xlink">
        <path d="M11 9.62499C8.42188 9.62499 6.35938 7.59687 6.35938 5.12187C6.35938 2.64687 8.42188 0.618744 11 0.618744C13.5781 0.618744 15.6406 2.64687 15.6406 5.12187C15.6406 7.59687 13.5781 9.62499 11 9.62499ZM11 2.16562C9.28125 2.16562 7.90625 3.50624 7.90625 5.12187C7.90625 6.73749 9.28125 8.07812 11 8.07812C12.7188 8.07812 14.0938 6.73749 14.0938 5.12187C14.0938 3.50624 12.7188 2.16562 11 2.16562Z"/>
        <path d="M17.7719 21.4156H4.2281C3.5406 21.4156 2.9906 20.8656 2.9906 20.1781V17.0844C2.9906 13.7156 5.7406 10.9656 9.10935 10.9656H12.925C16.2937 10.9656 19.0437 13.7156 19.0437 17.0844V20.1781C19.0094 20.8312 18.4594 21.4156 17.7719 21.4156ZM4.53748 19.8687H17.4969V17.0844C17.4969 14.575 15.4344 12.5125 12.925 12.5125H9.07498C6.5656 12.5125 4.5031 14.575 4.5031 17.0844V19.8687H4.53748Z"/>
    </symbol>
    <symbol id="contact" xmlns="http://www.w3.org/2000/svg" xmlns:xlink="http://www.w3.org/1999/xlink">
        <path d="M17.6687 1.44374C17.1187 0.893744 16.4312 0.618744 15.675 0.618744H7.42498C6.25623 0.618744 5.25935 1.58124 5.25935 2.78437V4.12499H4.29685C3.88435 4.12499 3.50623 4.46874 3.50623 4.91562C3.50623 5.36249 3.84998 5.70624 4.29685 5.70624H5.25935V10.2781H4.29685C3.88435 10.2781 3.50623 10.6219 3.50623 11.0687C3.50623 11.4812 3.84998 11.8594 4.29685 11.8594H5.25935V16.4312H4.29685C3.88435 16.4312 3.50623 16.775 3.50623 17.2219C3.50623 17.6687 3.84998 18.0125 4.29685 18.0125H5.25935V19.25C5.25935 20.4187 6.22185 21.4156 7.42498 21.4156H15.675C17.2218 21.4156 18.4937 20.1437 18.5281 18.5969V3.47187C18.4937 2.68124 18.2187 1.95937 17.6687 1.44374ZM16.9469 18.5625C16.9469 19.2844 16.3625 19.8344 15.6406 19.8344H7.3906C7.04685 19.8344 6.77185 19.5594 6.77185 19.2156V17.875H8.6281C9.0406 17.875 9.41873 17.5312 9.41873 17.0844C9.41873 16.6375 9.07498 16.2937 8.6281 16.2937H6.77185V11.7906H8.6281C9.0406 11.7906 9.41873 11.4469 9.41873 11C9.41873 10.5875 9.07498 10.2094 8.6281 10.2094H6.77185V5.63749H8.6281C9.0406 5.63749 9.41873 5.29374 9.41873 4.84687C9.41873 4.39999 9.07498 4.05624 8.6281 4.05624H6.77185V2.74999C6.77185 2.40624 7.04685 2.13124 7.3906 2.13124H15.6406C15.9844 2.13124 16.2937 2.26874 16.5687 2.50937C16.8094 2.74999 16.9469 3.09374 16.9469 3.43749V18.5625Z"/>
    </symbol>
    <symbol id="logout" xmlns="http://www.w3.org/2000/svg" xmlns:xlink="http://www.w3.org/1999/xlink">
        <path d="M15.5375 0.618744H11.6531C10.7594 0.618744 10.0031 1.37499 10.0031 2.26874V4.64062C10.0031 5.05312 10.3469 5.39687 10.7594 5.39687C11.1719 5.39687 11.55 5.05312 11.55 4.64062V2.23437C11.55 2.16562 11.5844 2.13124 11.6531 2.13124H15.5375C16.3625 2.13124 17.0156 2.78437 17.0156 3.60937V18.3562C17.0156 19.1812 16.3625 19.8344 15.5375 19.8344H11.6531C11.5844 19.8344 11.55 19.8 11.55 19.7312V17.3594C11.55 16.9469 11.2062 16.6031 10.7594 16.6031C10.3125 16.6031 10.0031 16.9469 10.0031 17.3594V19.7312C10.0031 20.625 10.7594 21.3812 11.6531 21.3812H15.5375C17.2219 21.3812 18.5625 20.0062 18.5625 18.3562V3.64374C18.5625 1.95937 17.1875 0.618744 15.5375 0.618744Z"/>
        <path d="M6.05001 11.7563H12.2031C12.6156 11.7563 12.9594 11.4125 12.9594 11C12.9594 10.5875 12.6156 10.2438 12.2031 10.2438H6.08439L8.21564 8.07813C8.52501 7.76875 8.52501 7.2875 8.21564 6.97812C7.90626 6.66875 7.42501 6.66875 7.11564 6.97812L3.67814 10.4844C3.36876 10.7938 3.36876 11.275 3.67814 11.5844L7.11564 15.0906C7.25314 15.2281 7.45939 15.3312 7.66564 15.3312C7.87189 15.3312 8.04376 15.2625 8.21564 15.125C8.52501 14.8156 8.52501 14.3344 8.21564 14.025L6.05001 11.7563Z"/>
    </symbol>

</svg>
